# xmcd
#
# Track frame offsets:
# 150
# 23015
# 38542
# 62032
# 77352
# 81810
# 94502
# 114807
# 127450
# 143990
# 162517
#
# Disc length: 2404 seconds
#
#
# Revision: 3
# Processed by: cddbd v1.5.2PL0 Copyright (c) Steve Scherf et al.
# Submitted via: FreeRIP 2.951 
#
DISCID=8209620b
DTITLE=Bródy János - Hungarian Blues
DYEAR=1980
DGENRE=Rock
TTITLE0=Személyi igazolvány
TTITLE1=Filléres emlékeim
TTITLE2=K. Kata balladája
TTITLE3=Bûnbánó Magdaléna
TTITLE4=Nevet ne mondj!
TTITLE5=A kiskacsa
TTITLE6=Földvár felé félúton
TTITLE7=Hungarian Blues
TTITLE8=Vásárhely
TTITLE9=Maszkabál
TTITLE10=Mama kérlek
EXTD=Hungaroton HCD 17642\n(P) 1980
EXTT0=
EXTT1=
EXTT2=
EXTT3=
EXTT4=
EXTT5=
EXTT6=
EXTT7=
EXTT8=
EXTT9=
EXTT10=
PLAYORDER=
